<?xml version="1.0" encoding="utf-8"?>
<!-- Generator: Adobe Illustrator 19.0.0, SVG Export Plug-In . SVG Version: 6.00 Build 0)  -->
<svg version="1.1" id="图层_1" xmlns="http://www.w3.org/2000/svg" xmlns:xlink="http://www.w3.org/1999/xlink" x="0px" y="0px"
	 viewBox="0 0 22 22" enable-background="new 0 0 22 22" xml:space="preserve">
<g id="XMLID_4_">
	<path id="XMLID_7_" fill="#2C6BC0" d="M6,12.2c-0.7,0-1.2-0.5-1.2-1.2V7c0-3.4,2.8-6.2,6.2-6.2c3.4,0,6.2,2.8,6.2,6.2
		c0,0.7-0.5,1.2-1.2,1.2S14.8,7.7,14.8,7c0-2.1-1.7-3.8-3.8-3.8C8.9,3.2,7.2,4.9,7.2,7v4C7.2,11.7,6.7,12.2,6,12.2z"/>
</g>
<g id="XMLID_2_">
	<path id="XMLID_3_" fill="#2C6BC0" d="M18,21.2H4c-1.2,0-2.2-1-2.2-2.2v-7c0-1.2,1-2.2,2.2-2.2h14c1.2,0,2.2,1,2.2,2.2v7
		C20.2,20.2,19.2,21.2,18,21.2z M4.2,18.8h13.6v-6.6H4.2V18.8z"/>
</g>
</svg>
