<?xml version="1.0" encoding="utf-8"?>
<!-- Generator: Adobe Illustrator 19.0.0, SVG Export Plug-In . SVG Version: 6.00 Build 0)  -->
<svg version="1.1" id="图层_1" xmlns="http://www.w3.org/2000/svg" xmlns:xlink="http://www.w3.org/1999/xlink" x="0px" y="0px"
	 viewBox="0 0 22 22" enable-background="new 0 0 22 22" xml:space="preserve">
<g id="XMLID_1_">
	<path id="XMLID_5_" fill="#2C6BC0" d="M11,13.3c-3.4,0-6.2-2.8-6.2-6.2c0-3.4,2.8-6.2,6.2-6.2c3.4,0,6.2,2.8,6.2,6.2
		C17.2,10.5,14.4,13.3,11,13.3z M11,3.3C8.9,3.3,7.2,5,7.2,7.1c0,2.1,1.7,3.8,3.8,3.8c2.1,0,3.8-1.7,3.8-3.8C14.8,5,13.1,3.3,11,3.3
		z"/>
</g>
<g id="XMLID_3_">
	<path id="XMLID_4_" fill="#2C6BC0" d="M18.6,21.1c-0.6,0-1.1-0.5-1.2-1.1c-0.3-3.7-3.1-6.7-6.4-6.7c-3.3,0-6.1,2.9-6.4,6.7
		c-0.1,0.7-0.6,1.2-1.3,1.1c-0.7,0-1.2-0.6-1.1-1.3c0.4-5,4.3-8.9,8.8-8.9c4.6,0,8.4,3.9,8.8,8.9C19.9,20.5,19.4,21,18.6,21.1
		C18.7,21.1,18.7,21.1,18.6,21.1z"/>
</g>
</svg>
