<?xml version="1.0" standalone="no"?><!DOCTYPE svg PUBLIC "-//W3C//DTD SVG 1.1//EN" "http://www.w3.org/Graphics/SVG/1.1/DTD/svg11.dtd"><svg t="1505392635527" class="icon" style="" viewBox="0 0 1024 1024" version="1.1" xmlns="http://www.w3.org/2000/svg" p-id="6442" xmlns:xlink="http://www.w3.org/1999/xlink" width="200" height="200"><defs><style type="text/css"></style></defs><path d="M504.960288 0.073917c69.725146-0.895963 135.354459 11.615524 197.175928 37.566462 61.693474 25.950938 115.54727 61.469484 161.657382 106.651634 46.014116 45.150152 82.684615 98.331975 109.979498 159.609466 27.326881 61.213494 41.310309 126.746811 42.27027 196.471957 0.767969 66.237288-10.49557 128.602735-34.142603 187.096341a510.635096 510.635096 0 0 1-98.011987 155.609629 521.834637 521.834637 0 0 1-147.609957 111.387441 522.50661 522.50661 0 0 1-183.096505 54.20578 1422.917749 1422.917749 0 0 1-118.651143 10.079588c-45.118153 2.271907-103.483764-0.25599-175.064833-7.391698-40.222353-3.487857-75.100926-7.999673-104.603718-13.375452s-53.853795-10.687562-73.117006-16.12734c-19.199214-5.37578-32.830656-10.01559-40.926325-14.015426-7.999673-4.15983-10.239581-6.623729-6.655728-7.359699 43.774208-8.127667 78.65278-19.29521 104.603718-33.534627 15.231376-8.959633 21.439122-21.375125 18.783231-36.89449-2.655891-15.711357-10.27158-30.238762-22.783067-43.582215-38.462425-42.974241-70.013134-93.084189-94.556129-150.265849C15.63632 638.991761 2.868843 576.882304 2.004878 509.781051c-0.895963-69.757144 11.615524-135.482454 37.566462-197.175928a505.419309 505.419309 0 0 1 107.291608-161.657382A510.5391 510.5391 0 0 1 307.78436 41.640215C369.477835 14.88931 435.171145 1.001879 504.960288 0.073917z" fill="" p-id="6443"></path><path d="M504.960288 0.073917c69.725146-0.895963 135.354459 11.615524 197.175928 37.566462 61.693474 25.950938 115.54727 61.469484 161.657382 106.651634 46.014116 45.150152 82.684615 98.331975 109.979498 159.609466 27.326881 61.213494 41.310309 126.746811 42.27027 196.471957 0.767969 66.237288-10.49557 128.602735-34.142603 187.096341a510.635096 510.635096 0 0 1-98.011987 155.609629 521.834637 521.834637 0 0 1-147.609957 111.387441 522.50661 522.50661 0 0 1-183.096505 54.20578 1422.917749 1422.917749 0 0 1-118.651143 10.079588c-45.118153 2.271907-103.483764-0.25599-175.064833-7.391698-40.222353-3.487857-75.100926-7.999673-104.603718-13.375452s-53.853795-10.687562-73.117006-16.12734c-19.199214-5.37578-32.830656-10.01559-40.926325-14.015426-7.999673-4.15983-10.239581-6.623729-6.655728-7.359699 43.774208-8.127667 78.65278-19.29521 104.603718-33.534627 15.231376-8.959633 21.439122-21.375125 18.783231-36.89449-2.655891-15.711357-10.27158-30.238762-22.783067-43.582215-38.462425-42.974241-70.013134-93.084189-94.556129-150.265849C15.63632 638.991761 2.868843 576.882304 2.004878 509.781051c-0.895963-69.757144 11.615524-135.482454 37.566462-197.175928a505.419309 505.419309 0 0 1 107.291608-161.657382A510.5391 510.5391 0 0 1 307.78436 41.640215C369.477835 14.88931 435.171145 1.001879 504.960288 0.073917z" fill="#1afa29" p-id="6444" class="selected"></path><path d="M338.151117 888.517546l123.482945-343.377943-160.761419-43.870204L670.169525 75.494829l-117.115206 325.522674 160.441432 43.678212-375.344634 443.821831z" fill="#FFFFFF" p-id="6445"></path></svg>