<?xml version="1.0" standalone="no"?><!DOCTYPE svg PUBLIC "-//W3C//DTD SVG 1.1//EN" "http://www.w3.org/Graphics/SVG/1.1/DTD/svg11.dtd"><svg t="1514189741243" class="icon" style="" viewBox="0 0 1024 1024" version="1.1" xmlns="http://www.w3.org/2000/svg" p-id="862" xmlns:xlink="http://www.w3.org/1999/xlink" width="200" height="200"><defs><style type="text/css"></style></defs><path d="M507.22030354 164.43595281c47.3386841-0.608325 91.89713281 7.88582022 133.86952132 25.50484053 41.88616389 17.6190203 78.44880503 41.73408262 109.75513793 72.40968569 31.2404763 30.65387719 56.13699185 66.76095351 74.66917858 108.36468079 18.55255478 41.55959654 28.04677002 86.05218865 28.69854681 133.39087275 0.52074247 44.97124069-7.12609291 87.31296938-23.18084892 127.02654395a346.6875432 346.6875432 0 0 1-66.54369458 105.64894415 354.29160577 354.29160577 0 0 1-100.21747091 75.62443894 354.74784951 354.74784951 0 0 1-124.31080733 36.8023049 966.06763267 966.06763267 0 0 1-80.55553771 6.84365631c-30.63283024 1.54185947-70.25950122-0.17448608-118.85828712-5.0186813-27.30808966-2.36812235-50.98795519-5.43147326-71.01854961-9.08142329s-36.56332009-7.25576933-49.64162875-10.94917114c-13.03553581-3.64995003-22.29008731-6.80020451-27.78673823-9.51594115-5.43147326-2.8243661-6.95228576-4.49658091-4.51830682-4.99695539 29.71966379-5.51769788 53.39952931-13.10003455 71.01854962-22.76737801 10.34152507-6.08325005 14.55634831-14.5122176 12.7530992-25.04927571-1.80324911-10.66605561-6.97401166-20.52961104-15.46883582-29.58930844-26.11316555-29.17651647-47.53421712-63.19790707-64.19729815-102.02072001C175.00152614 598.21920645 166.33425269 556.05060596 165.74697465 510.4934451 165.13864965 463.13303513 173.63279489 418.51076658 191.25113625 376.62392379a343.14690158 343.14690158 0 0 1 72.84420357-109.75445901A346.62304446 346.62304446 0 0 1 373.35078222 192.65652996C415.2369461 174.49504126 459.83816766 165.06600372 507.22030354 164.43595281z" fill="" p-id="863"></path><path d="M507.22030354 164.43595281c47.3386841-0.608325 91.89713281 7.88582022 133.86952132 25.50484053 41.88616389 17.6190203 78.44880503 41.73408262 109.75513793 72.40968569 31.2404763 30.65387719 56.13699185 66.76095351 74.66917858 108.36468079 18.55255478 41.55959654 28.04677002 86.05218865 28.69854681 133.39087275 0.52074247 44.97124069-7.12609291 87.31296938-23.18084892 127.02654395a346.6875432 346.6875432 0 0 1-66.54369458 105.64894415 354.29160577 354.29160577 0 0 1-100.21747091 75.62443894 354.74784951 354.74784951 0 0 1-124.31080733 36.8023049 966.06763267 966.06763267 0 0 1-80.55553771 6.84365631c-30.63283024 1.54185947-70.25950122-0.17448608-118.85828712-5.0186813-27.30808966-2.36812235-50.98795519-5.43147326-71.01854961-9.08142329s-36.56332009-7.25576933-49.64162875-10.94917114c-13.03553581-3.64995003-22.29008731-6.80020451-27.78673823-9.51594115-5.43147326-2.8243661-6.95228576-4.49658091-4.51830682-4.99695539 29.71966379-5.51769788 53.39952931-13.10003455 71.01854962-22.76737801 10.34152507-6.08325005 14.55634831-14.5122176 12.7530992-25.04927571-1.80324911-10.66605561-6.97401166-20.52961104-15.46883582-29.58930844-26.11316555-29.17651647-47.53421712-63.19790707-64.19729815-102.02072001C175.00152614 598.21920645 166.33425269 556.05060596 165.74697465 510.4934451 165.13864965 463.13303513 173.63279489 418.51076658 191.25113625 376.62392379a343.14690158 343.14690158 0 0 1 72.84420357-109.75445901A346.62304446 346.62304446 0 0 1 373.35078222 192.65652996C415.2369461 174.49504126 459.83816766 165.06600372 507.22030354 164.43595281z" fill="#1AFA29" p-id="864"></path><path d="M393.96797577 767.63093088L477.80480225 534.49987798l-109.14613399-29.78484149L619.38701561 215.64116692 539.87296288 436.6505294l108.92955399 29.6544861L393.96729682 767.63093088z" fill="#FFFFFF" p-id="865"></path></svg>